<?xml version="1.0" encoding="UTF-8" standalone="no"?>
<svg width="266px" height="395px" viewBox="0 0 266 395" version="1.1" xmlns="http://www.w3.org/2000/svg" xmlns:xlink="http://www.w3.org/1999/xlink" xmlns:sketch="http://www.bohemiancoding.com/sketch/ns">
    <!-- Generator: Sketch 3.0.1 (7597) - http://www.bohemiancoding.com/sketch -->
    <title>Untitled 2</title>
    <description>Created with Sketch.</description>
    <defs></defs>
    <g id="Page-1" stroke="none" stroke-width="1" fill="none" fill-rule="evenodd" sketch:type="MSPage">
        <path d="M62.328,0.928 L62.328,173.472 L63.864,173.472 C66.9360154,169.37598 70.8613094,165.109356 75.64,160.672 C80.4186906,156.234644 86.1359667,152.138685 92.792,148.384 C99.4480333,144.629315 107.213289,141.472013 116.088,138.912 C124.962711,136.351987 135.031944,135.072 146.296,135.072 C163.704087,135.072 179.746593,138.399967 194.424,145.056 C209.101407,151.712033 221.730614,160.842609 232.312,172.448 C242.893386,184.053391 251.085304,197.706588 256.888,213.408 C262.690696,229.109412 265.592,246.005243 265.592,264.096 C265.592,282.186757 262.776028,299.167921 257.144,315.04 C251.511972,330.912079 243.490719,344.735941 233.08,356.512 C222.669281,368.288059 210.040074,377.674632 195.192,384.672 C180.343926,391.669368 163.533427,395.168 144.76,395.168 C127.351913,395.168 111.053409,391.413371 95.864,383.904 C80.6745907,376.394629 68.813376,365.472072 60.28,351.136 L59.256,351.136 L59.256,388 L0.888,388 L0.888,0.928 L62.328,0.928 Z M203.128,264.096 C203.128,254.538619 201.677348,245.066714 198.776,235.68 C195.874652,226.293286 191.522696,217.845371 185.72,210.336 C179.917304,202.826629 172.578711,196.768023 163.704,192.16 C154.829289,187.551977 144.418726,185.248 132.472,185.248 C121.207944,185.248 111.138711,187.637309 102.264,192.416 C93.389289,197.194691 85.7946982,203.338629 79.48,210.848 C73.1653018,218.357371 68.3866829,226.890619 65.144,236.448 C61.9013171,246.005381 60.28,255.562619 60.28,265.12 C60.28,274.677381 61.9013171,284.149286 65.144,293.536 C68.3866829,302.922714 73.1653018,311.370629 79.48,318.88 C85.7946982,326.389371 93.389289,332.447977 102.264,337.056 C111.138711,341.664023 121.207944,343.968 132.472,343.968 C144.418726,343.968 154.829289,341.578691 163.704,336.8 C172.578711,332.021309 179.917304,325.877371 185.72,318.368 C191.522696,310.858629 195.874652,302.325381 198.776,292.768 C201.677348,283.210619 203.128,273.653381 203.128,264.096 Z" id="b" fill="#212121" sketch:type="MSShapeGroup"></path>
    </g>
</svg>